<svg width="16" height="16" viewBox="0 0 16 16" fill="none" xmlns="http://www.w3.org/2000/svg">
<path d="M8 0C3.58894 0 0 3.58894 0 8C0 12.4111 3.58894 16 8 16C12.4111 16 16 12.4111 16 8C16 3.58894 12.4111 0 8 0ZM8 1.23077C11.7452 1.23077 14.7692 4.25481 14.7692 8C14.7692 11.7452 11.7452 14.7692 8 14.7692C4.25481 14.7692 1.23077 11.7452 1.23077 8C1.23077 4.25481 4.25481 1.23077 8 1.23077ZM5.67308 4.78846L4.78846 5.67308L7.11539 8L4.78846 10.3269L5.67308 11.2115L8 8.88462L10.3269 11.2115L11.2115 10.3269L8.88462 8L11.2115 5.67308L10.3269 4.78846L8 7.11539L5.67308 4.78846Z" fill="#FF0000"/>
</svg>
