<svg width="24" height="24" viewBox="0 0 24 24" fill="none" xmlns="http://www.w3.org/2000/svg">
<path fill-rule="evenodd" clip-rule="evenodd" d="M2.87868 6.8788C3.44129 6.31619 4.20435 6.00012 5 6.00012H6C6.55228 6.00012 7 6.44784 7 7.00012C7 7.55241 6.55228 8.00012 6 8.00012H5C4.73478 8.00012 4.48043 8.10548 4.29289 8.29302C4.10536 8.48055 4 8.73491 4 9.00012V18.0001C4 18.2653 4.10536 18.5197 4.29289 18.7072C4.48043 18.8948 4.73478 19.0001 5 19.0001H14C14.2652 19.0001 14.5196 18.8948 14.7071 18.7072C14.8946 18.5197 15 18.2653 15 18.0001V17.0001C15 16.4478 15.4477 16.0001 16 16.0001C16.5523 16.0001 17 16.4478 17 17.0001V18.0001C17 18.7958 16.6839 19.5588 16.1213 20.1214C15.5587 20.6841 14.7957 21.0001 14 21.0001H5C4.20435 21.0001 3.44129 20.6841 2.87868 20.1214C2.31607 19.5588 2 18.7958 2 18.0001V9.00012C2 8.20447 2.31607 7.44141 2.87868 6.8788Z" fill="black"/>
<path fill-rule="evenodd" clip-rule="evenodd" d="M15.7087 2.90722C16.29 2.32633 17.0782 2 17.9 2C18.7222 2 19.5107 2.32662 20.0921 2.908C20.6735 3.48938 21.0001 4.27791 21.0001 5.10011C21.0001 5.92192 20.6738 6.7101 20.0929 7.2914C20.0926 7.29167 20.0924 7.29194 20.0921 7.29221L18.8287 8.56017C18.7936 8.61201 18.753 8.66129 18.7071 8.70721C18.6621 8.75226 18.6138 8.79211 18.563 8.82676L11.7084 15.7059C11.5207 15.8943 11.2658 16.0001 11 16.0001H8C7.44772 16.0001 7 15.5524 7 15.0001V12.0001C7 11.7343 7.10585 11.4794 7.29416 11.2917L14.1733 4.43708C14.208 4.38632 14.2478 4.33805 14.2929 4.293C14.3388 4.24708 14.3881 4.20655 14.4399 4.17143L15.7079 2.908C15.7082 2.90774 15.7084 2.90748 15.7087 2.90722ZM15.0112 6.42556L9 12.4154V14.0001H10.5847L16.5745 7.98887L15.0112 6.42556ZM17.9862 6.57213L16.428 5.01387L17.1221 4.32221C17.3284 4.1159 17.6082 4 17.9 4C18.1918 4 18.4716 4.1159 18.6779 4.32221C18.8842 4.52852 19.0001 4.80834 19.0001 5.10011C19.0001 5.39187 18.8842 5.67169 18.6779 5.878L17.9862 6.57213Z" fill="black"/>
</svg>
